<?xml version="1.0" encoding="UTF-8"?>
<svg version="1.1" xmlns="http://www.w3.org/2000/svg" width="128" height="128">
<path d="M0 0 C1.47226547 0.74612549 1.47226547 0.74612549 2.97427368 1.50732422 C4.67861572 2.36003906 4.67861572 2.36003906 6.41738892 3.22998047 C7.60790048 3.84033923 8.79825027 4.45101363 9.98843384 5.06201172 C11.08325073 5.61244141 12.17806763 6.16287109 13.30606079 6.72998047 C17.38650655 8.78587674 21.45638207 10.8626984 25.52749634 12.93701172 C34.64374634 17.55701172 43.75999634 22.17701172 53.15249634 26.93701172 C53.15249634 50.69701172 53.15249634 74.45701172 53.15249634 98.93701172 C47.37749634 101.86576172 41.60249634 104.79451172 35.65249634 107.81201172 C33.84587524 108.73353027 32.03925415 109.65504883 30.17788696 110.60449219 C28.72182975 111.33836905 27.26546902 112.07164418 25.80874634 112.80419922 C25.07236938 113.18261963 24.33599243 113.56104004 23.57730103 113.95092773 C19.99638203 115.74257297 16.64410854 117.16500348 12.73648071 118.078125 C8.72581068 119.03926513 7.89433881 120.0238041 5.15249634 122.93701172 C0.39843212 125.96232531 -3.14093731 127.3022976 -8.84750366 126.93701172 C-11.69500732 125.87402344 -11.69500732 125.87402344 -14.66928101 124.36669922 C-15.80550903 123.79822266 -16.94173706 123.22974609 -18.11239624 122.64404297 C-19.3029078 122.03368421 -20.49325759 121.4230098 -21.68344116 120.81201172 C-22.77825806 120.26158203 -23.87307495 119.71115234 -25.00106812 119.14404297 C-29.08151388 117.0881467 -33.1513894 115.01132504 -37.22250366 112.93701172 C-50.89687866 106.00701172 -50.89687866 106.00701172 -64.84750366 98.93701172 C-64.84750366 75.17701172 -64.84750366 51.41701172 -64.84750366 26.93701172 C-59.07250366 24.00826172 -53.29750366 21.07951172 -47.34750366 18.06201172 C-45.54088257 17.14049316 -43.73426147 16.21897461 -41.87289429 15.26953125 C-40.41683707 14.53565439 -38.96047635 13.80237926 -37.50375366 13.06982422 C-36.76737671 12.69140381 -36.03099976 12.3129834 -35.27230835 11.9230957 C-31.69138935 10.13145047 -28.33911587 8.70901996 -24.43148804 7.79589844 C-20.42081801 6.8347583 -19.58934613 5.85021934 -16.84750366 2.93701172 C-11.27266823 -0.61061083 -6.51563358 -2.43232072 0 0 Z " fill="#005360" transform="translate(69.84750366210938,1.06298828125)"/>
<path d="M0 0 C0 20.79 0 41.58 0 63 C-5.56875 65.805 -11.1375 68.61 -16.875 71.5 C-18.63183105 72.38751953 -20.38866211 73.27503906 -22.19873047 74.18945312 C-23.58805686 74.88703607 -24.97753234 75.58432223 -26.3671875 76.28125 C-27.09107666 76.64831055 -27.81496582 77.01537109 -28.56079102 77.39355469 C-33.7718564 80 -33.7718564 80 -36 80 C-36 81.32 -36 82.64 -36 84 C-39.02845033 85.08158941 -41.88363276 85.98100127 -45.0625 86.5 C-48.42369694 86.96616267 -48.42369694 86.96616267 -53 89 C-53 68.21 -53 47.42 -53 26 C-41.70061681 20.05295622 -30.42261496 14.11797558 -19.00463867 8.40966797 C-16.87524447 7.34383915 -14.7491724 6.27155066 -12.62304688 5.19921875 C-11.25800658 4.51523753 -9.89278001 3.83162792 -8.52734375 3.1484375 C-7.89730942 2.82982758 -7.26727509 2.51121765 -6.6181488 2.18295288 C-2.22892758 0 -2.22892758 0 0 0 Z " fill="#00B6B4" transform="translate(119,34)"/>
<path d="M0 0 C2.78200323 1.34092303 5.54686555 2.71257542 8.30860901 4.09474182 C9.82384407 4.84914551 9.82384407 4.84914551 11.36968994 5.61878967 C13.49626145 6.67921173 15.6217962 7.74171513 17.74635315 8.8061676 C21.01022455 10.43969138 24.27929913 12.06245185 27.54884338 13.68458557 C29.61492248 14.71648943 31.68068886 15.74901969 33.74610901 16.78224182 C35.21942436 17.51199219 35.21942436 17.51199219 36.72250366 18.25648499 C37.62401657 18.71035583 38.52552948 19.16422668 39.45436096 19.6318512 C40.25122818 20.02997009 41.0480954 20.42808899 41.86911011 20.83827209 C43.69532776 21.93849182 43.69532776 21.93849182 44.69532776 23.93849182 C37.6957705 27.53968165 30.68379323 31.11573011 23.66261292 34.67457581 C21.27456841 35.88645563 18.89078527 37.10617962 16.51026917 38.33277893 C13.08724521 40.09280396 9.65431098 41.83196949 6.21876526 43.56739807 C5.15604401 44.11940384 4.09332275 44.67140961 2.99839783 45.24014282 C1.99781342 45.74073715 0.997229 46.24133148 -0.03367615 46.75709534 C-0.90859711 47.20343826 -1.78351807 47.64978119 -2.68495178 48.10964966 C-7.44507266 49.61568396 -11.43624244 48.12653912 -15.74607849 45.94483948 C-16.56713074 45.53416229 -17.38818298 45.12348511 -18.2341156 44.70036316 C-19.53747864 44.03319778 -19.53747864 44.03319778 -20.86717224 43.35255432 C-21.7766864 42.89496735 -22.68620056 42.43738037 -23.62327576 41.96592712 C-26.5209304 40.50594302 -29.41282288 39.03493565 -32.30467224 37.56349182 C-34.24961214 36.58098305 -36.19492102 35.59920434 -38.14060974 34.61817932 C-41.71713795 32.81361294 -45.29149678 31.00490026 -48.86326599 29.19093323 C-52.33727063 27.42692186 -55.81725332 25.67582186 -59.30467224 23.93849182 C-56.6673927 20.85417618 -53.55861141 19.37913088 -49.95701599 17.58302307 C-49.34451492 17.27652328 -48.73201385 16.9700235 -48.10095215 16.65423584 C-46.81051228 16.01018269 -45.51860112 15.36907005 -44.22532654 14.73072815 C-42.24204102 13.750927 -40.26433453 12.76050396 -38.28709412 11.76856995 C-28.58385982 6.93849182 -28.58385982 6.93849182 -26.30467224 6.93849182 C-26.30467224 5.61849182 -26.30467224 4.29849182 -26.30467224 2.93849182 C-21.67967224 0.81349182 -21.67967224 0.81349182 -18.30467224 1.93849182 C-15.752808 0.73942308 -13.39286596 -0.68328402 -10.97264099 -2.12791443 C-6.80058462 -3.58782874 -3.90664586 -1.79936065 0 0 Z " fill="#00B5B3" transform="translate(71.30467224121094,7.0615081787109375)"/>
<path d="M0 0 C1.47226547 0.74612549 1.47226547 0.74612549 2.97427368 1.50732422 C4.67861572 2.36003906 4.67861572 2.36003906 6.41738892 3.22998047 C7.60790048 3.84033923 8.79825027 4.45101363 9.98843384 5.06201172 C11.08325073 5.61244141 12.17806763 6.16287109 13.30606079 6.72998047 C17.38650655 8.78587674 21.45638207 10.8626984 25.52749634 12.93701172 C34.64374634 17.55701172 43.75999634 22.17701172 53.15249634 26.93701172 C53.15249634 50.69701172 53.15249634 74.45701172 53.15249634 98.93701172 C47.29499634 101.90701172 41.43749634 104.87701172 35.40249634 107.93701172 C33.55945923 108.87673828 31.71642212 109.81646484 29.8175354 110.78466797 C28.35138445 111.52358531 26.8849332 112.26190722 25.41812134 112.99951172 C24.66128052 113.38816406 23.9044397 113.77681641 23.12466431 114.17724609 C22.39424927 114.54269531 21.66383423 114.90814453 20.9112854 115.28466797 C20.28063171 115.60443604 19.64997803 115.9242041 19.00021362 116.25366211 C17.15249634 116.93701172 17.15249634 116.93701172 13.15249634 116.93701172 C13.15249634 115.61701172 13.15249634 114.29701172 13.15249634 112.93701172 C17.95545084 110.51086305 22.76098052 108.0899233 27.56900024 105.67382812 C29.20514075 104.8507211 30.84056121 104.02618121 32.47525024 103.20019531 C34.82152657 102.01496294 37.17032218 100.83486402 39.51968384 99.65576172 C40.25306976 99.28390747 40.98645569 98.91205322 41.74206543 98.52893066 C46.92475292 95.93701172 46.92475292 95.93701172 49.15249634 95.93701172 C49.15249634 75.14701172 49.15249634 54.35701172 49.15249634 32.93701172 C31.99249634 41.51701172 14.83249634 50.09701172 -2.84750366 58.93701172 C-2.84750366 79.39701172 -2.84750366 99.85701172 -2.84750366 120.93701172 C-0.86750366 119.94701172 1.11249634 118.95701172 3.15249634 117.93701172 C6.02749634 118.24951172 6.02749634 118.24951172 8.15249634 118.93701172 C7.15249634 121.93701172 7.15249634 121.93701172 5.07827759 123.32373047 C3.78470337 123.96761719 3.78470337 123.96761719 2.46499634 124.62451172 C1.61550415 125.06150391 0.76601196 125.49849609 -0.10922241 125.94873047 C-4.27500073 127.45221394 -7.53322387 127.42763936 -11.69500732 125.87402344 C-12.67651764 125.37660645 -13.65802795 124.87918945 -14.66928101 124.36669922 C-15.80550903 123.79822266 -16.94173706 123.22974609 -18.11239624 122.64404297 C-19.3029078 122.03368421 -20.49325759 121.4230098 -21.68344116 120.81201172 C-22.77825806 120.26158203 -23.87307495 119.71115234 -25.00106812 119.14404297 C-29.08151388 117.0881467 -33.1513894 115.01132504 -37.22250366 112.93701172 C-50.89687866 106.00701172 -50.89687866 106.00701172 -64.84750366 98.93701172 C-64.84750366 75.17701172 -64.84750366 51.41701172 -64.84750366 26.93701172 C-58.99000366 23.96701172 -53.13250366 20.99701172 -47.09750366 17.93701172 C-45.25446655 16.99728516 -43.41142944 16.05755859 -41.51254272 15.08935547 C-40.04639178 14.35043813 -38.57994052 13.61211622 -37.11312866 12.87451172 C-36.35628784 12.48585938 -35.59944702 12.09720703 -34.81967163 11.69677734 C-34.08925659 11.33132813 -33.35884155 10.96587891 -32.60629272 10.58935547 C-31.97563904 10.2695874 -31.34498535 9.94981934 -30.69522095 9.62036133 C-28.84750366 8.93701172 -28.84750366 8.93701172 -24.84750366 8.93701172 C-24.84750366 10.25701172 -24.84750366 11.57701172 -24.84750366 12.93701172 C-40.68750366 20.85701172 -40.68750366 20.85701172 -56.84750366 28.93701172 C-54.75082374 31.03369164 -53.1335741 31.86957272 -50.46469116 33.11669922 C-49.55582153 33.54563477 -48.6469519 33.97457031 -47.71054077 34.41650391 C-46.72448853 34.87702148 -45.73843628 35.33753906 -44.72250366 35.81201172 C-38.15704963 38.89463926 -31.63025657 42.01874178 -25.19515991 45.36669922 C-24.12217651 45.92115723 -23.04919312 46.47561523 -21.94369507 47.046875 C-19.87022542 48.12351506 -17.80319671 49.21267012 -15.74349976 50.31542969 C-14.79684448 50.80414551 -13.85018921 51.29286133 -12.87484741 51.79638672 C-11.63335937 52.4533252 -11.63335937 52.4533252 -10.36679077 53.12353516 C-3.53508404 55.32948988 2.81272424 50.87339798 8.76577759 47.84326172 C9.7759343 47.33653931 10.786091 46.82981689 11.82685852 46.30773926 C13.95428533 45.23882592 16.0798049 44.16610925 18.20352173 43.08984375 C21.4670991 41.43594609 24.73595439 39.79289764 28.00601196 38.15185547 C30.07208006 37.1121124 32.13784606 36.07176875 34.20327759 35.03076172 C35.18548782 34.53596313 36.16769806 34.04116455 37.17967224 33.53137207 C38.5319416 32.84561096 38.5319416 32.84561096 39.91152954 32.14599609 C40.70839676 31.74264038 41.50526398 31.33928467 42.32627869 30.92370605 C44.11523994 30.06959746 44.11523994 30.06959746 45.15249634 28.93701172 C38.1557802 25.3119411 31.14360824 21.71825162 24.11978149 18.14599609 C21.73071659 16.92913214 19.34706112 15.70250638 16.96743774 14.46728516 C13.54624556 12.6960802 10.11281702 10.95096906 6.67593384 9.21044922 C5.61321259 8.65328217 4.55049133 8.09611511 3.45556641 7.52206421 C2.45498199 7.02139435 1.45439758 6.52072449 0.42349243 6.00488281 C-0.45142853 5.55631927 -1.32634949 5.10775574 -2.2277832 4.64559937 C-6.76664686 3.41791772 -10.04561938 5.51248475 -14.03500366 7.62451172 C-16.84750366 8.93701172 -16.84750366 8.93701172 -19.84750366 7.93701172 C-19.64047241 6.10888672 -19.64047241 6.10888672 -18.84750366 3.93701172 C-16.77328491 2.45263672 -16.77328491 2.45263672 -14.16000366 1.18701172 C-13.31051147 0.75904297 -12.46101929 0.33107422 -11.58578491 -0.10986328 C-7.4160743 -1.56123188 -4.15155645 -1.54979813 0 0 Z M-60.84750366 32.93701172 C-60.84750366 53.72701172 -60.84750366 74.51701172 -60.84750366 95.93701172 C-52.28812866 100.22701172 -43.72875366 104.51701172 -34.91000366 108.93701172 C-32.20434204 110.29439453 -29.49868042 111.65177734 -26.71102905 113.05029297 C-24.58081863 114.1168576 -22.45053408 115.1832742 -20.32015991 116.24951172 C-19.20250244 116.81089844 -18.08484497 117.37228516 -16.93331909 117.95068359 C-15.87769775 118.47855469 -14.82207642 119.00642578 -13.73446655 119.55029297 C-12.35213585 120.24312378 -12.35213585 120.24312378 -10.94187927 120.94995117 C-9.08262774 122.00806463 -9.08262774 122.00806463 -7.84750366 121.93701172 C-7.84750366 101.14701172 -7.84750366 80.35701172 -7.84750366 58.93701172 C-19.14688685 52.98996793 -30.4248887 47.0549873 -41.84286499 41.34667969 C-43.9722592 40.28085086 -46.09833127 39.20856238 -48.22445679 38.13623047 C-49.58949708 37.45224925 -50.95472366 36.76863964 -52.32015991 36.08544922 C-52.95019424 35.76683929 -53.58022858 35.44822937 -54.22935486 35.1199646 C-57.38495905 33.46246759 -57.38495905 33.46246759 -60.84750366 32.93701172 Z " fill="#000606" transform="translate(69.84750366210938,1.06298828125)"/>
<path d="M0 0 C0 20.79 0 41.58 0 63 C-3.63 64.65 -7.26 66.3 -11 68 C-11.33 47.21 -11.66 26.42 -12 5 C-2 0 -2 0 0 0 Z " fill="#008890" transform="translate(119,34)"/>
</svg>
